<?xml version="1.0" encoding="UTF-8"?>
<svg version="1.1" xmlns="http://www.w3.org/2000/svg" width="2000" height="404">
<path d="M0 0 C0.55478027 0.42925781 1.10956055 0.85851563 1.68115234 1.30078125 C21.91453203 17.13933112 39.3856348 36.59124745 52 59 C52.38752441 59.68223633 52.77504883 60.36447266 53.17431641 61.06738281 C80.10803142 108.88182031 85.94669433 164.69346036 71.58984375 217.51953125 C62.72922285 248.68945234 46.26721652 276.57160962 24 300 C23.47986328 300.55268555 22.95972656 301.10537109 22.42382812 301.67480469 C9.56079198 315.26056534 -4.62674518 326.85184889 -21 336 C-22.1125415 336.62986816 -22.1125415 336.62986816 -23.24755859 337.27246094 C-70.74452007 363.92978766 -126.80436719 370.35298661 -179.35546875 355.77734375 C-215.84900054 345.05029379 -251.78488349 323.83465832 -276 294 C-276.88773012 292.94767136 -277.77578115 291.89561339 -278.6640625 290.84375 C-301.80997792 263.08161199 -317.03682291 229.64907504 -323 194 C-323.33644531 192.10507812 -323.33644531 192.10507812 -323.6796875 190.171875 C-331.26339741 138.85197504 -318.1955263 84.42147991 -287.53125 42.60546875 C-283.01325805 36.56109274 -278.20365864 30.82212463 -273.0859375 25.2734375 C-271.1477745 23.1610576 -269.28976729 21.00001928 -267.4375 18.8125 C-263.9224469 14.8032671 -260.10865718 11.39013208 -256 8 C-255.50032715 7.57734863 -255.0006543 7.15469727 -254.48583984 6.71923828 C-226.33584238 -17.04653978 -192.43074553 -33.06169948 -156 -39 C-155.31437988 -39.11569336 -154.62875977 -39.23138672 -153.92236328 -39.35058594 C-100.30215549 -47.98619407 -42.71827962 -33.42465227 0 0 Z M-160 -13 C-160.8451416 -12.79068848 -161.6902832 -12.58137695 -162.56103516 -12.36572266 C-174.05012469 -9.4390806 -185.1700048 -5.84995437 -196 -1 C-196.62648438 -0.71962891 -197.25296875 -0.43925781 -197.8984375 -0.15039062 C-214.9802494 7.61874671 -230.28911239 18.22560412 -244 31 C-244.55526367 31.51675293 -245.11052734 32.03350586 -245.68261719 32.56591797 C-259.31646024 45.40544147 -269.7637972 59.74254586 -279 76 C-279.37253906 76.65162109 -279.74507813 77.30324219 -280.12890625 77.97460938 C-292.26245915 99.57770632 -300.043606 126.12777515 -300.203125 150.98828125 C-300.21018463 151.72474884 -300.21724426 152.46121643 -300.22451782 153.22000122 C-300.50590111 175.78573614 -300.50590111 175.78573614 -297 198 C-296.79068848 198.8451416 -296.58137695 199.6902832 -296.36572266 200.56103516 C-288.054189 233.18953991 -272.9168462 260.42419019 -250 285 C-249.27554688 285.79019531 -248.55109375 286.58039063 -247.8046875 287.39453125 C-220.09543479 316.46576417 -177.31817863 336.50383884 -137.08862305 338.16113281 C-135.72972255 338.18061771 -134.37073096 338.19440481 -133.01171875 338.203125 C-132.27525116 338.21018463 -131.53878357 338.21724426 -130.77999878 338.22451782 C-108.21426386 338.50590111 -108.21426386 338.50590111 -86 335 C-85.1548584 334.79068848 -84.3097168 334.58137695 -83.43896484 334.36572266 C-41.15815634 323.59543558 -4.92835505 300.27362462 21 265 C21.4213623 264.43361816 21.84272461 263.86723633 22.27685547 263.28369141 C38.91989388 240.63590192 48.56273331 213.56971245 53 186 C53.28810547 184.23076172 53.28810547 184.23076172 53.58203125 182.42578125 C57.50342639 148.81560319 51.82441149 114.35581047 37 84 C36.66097656 83.30277832 36.32195312 82.60555664 35.97265625 81.88720703 C23.23188121 56.02646721 4.190245 34.07295951 -19 17 C-19.55574707 16.58395508 -20.11149414 16.16791016 -20.68408203 15.73925781 C-46.41997368 -3.31149615 -80.75502022 -15.99629826 -112.98828125 -16.203125 C-113.72474884 -16.21018463 -114.46121643 -16.21724426 -115.22000122 -16.22451782 C-137.78573614 -16.50590111 -137.78573614 -16.50590111 -160 -13 Z " fill="#251E1F" transform="translate(326,41)"/>
<path d="M0 0 C-0.39832031 0.67804688 -0.79664063 1.35609375 -1.20703125 2.0546875 C-6.28490234 10.97493794 -10.84018643 19.60384589 -8 30 C-4.14537375 41.00809542 4.44020258 49.01479719 13.140625 56.41015625 C27.41798869 68.61790209 38.41354989 85.03538317 40.30175781 104.03662109 C40.43582034 107.09374336 40.46756214 110.12765525 40.4375 113.1875 C40.43065186 114.27248779 40.42380371 115.35747559 40.41674805 116.4753418 C40.14455054 130.24731209 37.01272859 142.56899221 31 155 C30.57074219 155.89847656 30.14148438 156.79695312 29.69921875 157.72265625 C18.41974518 179.80500592 -0.48240265 195.43706431 -22 207 C-23.09828125 207.60521484 -23.09828125 207.60521484 -24.21875 208.22265625 C-26 209 -26 209 -29 209 C-29.14695312 207.69289063 -29.14695312 207.69289063 -29.296875 206.359375 C-32.372306 181.86197635 -45.20091374 166.49921145 -62.3125 149.8125 C-73.14162672 139.20489253 -81.9505917 126.89390058 -82.29223633 111.29882812 C-82.43409546 93.01780009 -77.65485054 74.54900805 -66 60 C-63.78515625 58.6953125 -63.78515625 58.6953125 -62 58 C-62.03480469 59.18335938 -62.06960937 60.36671875 -62.10546875 61.5859375 C-62.3821065 74.78770555 -61.31527991 84.25267443 -53 95 C-52.34 95.66 -51.68 96.32 -51 97 C-51.144375 95.83984375 -51.28875 94.6796875 -51.4375 93.484375 C-54.24582112 70.20828997 -53.80054679 47.52771762 -39 28 C-32.37548676 19.71389268 -11.18727429 -3.72909143 0 0 Z " fill="#251E1F" transform="translate(224,98)"/>
<path d="M0 0 C4.97712892 4.3633275 7.4892841 11.66742734 8.875 18 C9.44347656 17.05898437 10.01195312 16.11796875 10.59765625 15.1484375 C20.80184481 -1.44086709 20.80184481 -1.44086709 30.24609375 -4.52734375 C38.70077976 -6.04742846 49.28828094 -6.65967437 57.01953125 -2.3828125 C66.59686145 4.75481885 69.66527382 14.37671324 71.4738121 25.76068878 C72.11194764 30.91318621 72.1372201 36.00863489 72.10205078 41.19433594 C72.10234283 42.34700958 72.10263489 43.49968323 72.10293579 44.68728638 C72.10155543 48.45306231 72.08605562 52.21863413 72.0703125 55.984375 C72.06657777 58.61281221 72.06373297 61.24125083 72.06173706 63.86968994 C72.05555499 70.05295264 72.03918918 76.23614346 72.01903808 82.4193747 C71.99657632 89.46666713 71.98565998 96.51396324 71.97564721 103.56128263 C71.95481949 118.04089723 71.9181849 132.5204343 71.875 147 C63.955 147 56.035 147 47.875 147 C47.86041748 143.67526611 47.84583496 140.35053223 47.83081055 136.92504883 C47.7803341 125.9048065 47.71371614 114.88470353 47.63928509 103.86459827 C47.59448187 97.18716943 47.5553987 90.50980342 47.52856445 83.83227539 C47.50243758 77.38065506 47.46196888 70.92926561 47.41181374 64.47778893 C47.39520837 62.02403333 47.38365489 59.57023787 47.37738609 57.1164341 C48.39718861 35.67055823 48.39718861 35.67055823 39.875 17 C36.10564115 15.74354705 32.77389345 15.26895748 28.875 16 C22.70452318 19.25940509 19.91290476 24.58060515 17.875 31 C14.53775264 44.10103541 14.40217601 56.99188594 14.36328125 70.4375 C14.34639904 72.65666677 14.32824416 74.87582418 14.30888367 77.0949707 C14.26176189 82.88156203 14.23170933 88.66811543 14.20544434 94.45483398 C14.1754461 100.38142385 14.12898289 106.30788341 14.08398438 112.234375 C13.99838244 123.82286277 13.93237275 135.41133806 13.875 147 C5.955 147 -1.965 147 -10.125 147 C-10.14481934 143.86749756 -10.16463867 140.73499512 -10.18505859 137.50756836 C-10.2522314 127.11001972 -10.32986569 116.71256764 -10.41252708 106.31513119 C-10.46228446 100.01666872 -10.50861498 93.71822137 -10.546875 87.41967773 C-10.58398914 81.33118613 -10.630417 75.24282778 -10.68306351 69.15445137 C-10.7014696 66.8418978 -10.71662728 64.52931581 -10.72834396 62.21671867 C-10.1400558 40.46144779 -10.1400558 40.46144779 -16.125 20 C-16.125 19.34 -16.125 18.68 -16.125 18 C-20.34098356 15.89200822 -24.4799784 15.13305098 -29.125 16 C-34.48719925 19.29981492 -36.83518717 23.22926093 -39.125 29 C-39.40214844 29.68320313 -39.67929687 30.36640625 -39.96484375 31.0703125 C-45.24366634 46.14515911 -44.44225868 63.56934928 -44.5390625 79.32421875 C-44.55783421 81.2924729 -44.57741174 83.26071952 -44.5977478 85.22895813 C-44.64844236 90.33980808 -44.68839773 95.45068395 -44.72589111 100.56164551 C-44.76633041 105.80483068 -44.81723767 111.04791396 -44.8671875 116.29101562 C-44.96320167 126.52727826 -45.0468667 136.76358525 -45.125 147 C-53.045 147 -60.965 147 -69.125 147 C-69.455 97.5 -69.785 48 -70.125 -3 C-62.865 -3 -55.605 -3 -48.125 -3 C-47.6875 4.3125 -47.6875 4.3125 -47.55688477 6.6027832 C-47.36664809 9.60594873 -47.08099652 12.13201045 -46.125 15 C-45.81046875 14.40832031 -45.4959375 13.81664062 -45.171875 13.20703125 C-40.79658961 5.12856755 -36.3795278 -1.47118857 -27.33203125 -4.625 C-17.11259389 -6.36139998 -8.663484 -5.54462976 0 0 Z " fill="#361E75" transform="translate(753.125,128)"/>
<path d="M0 0 C10.59810703 9.40533114 14.11184979 22.49202688 15.17056274 36.21002197 C15.39432477 40.83137462 15.41968373 45.45158085 15.41069031 50.07763672 C15.40611985 52.63533387 15.42046037 55.1923721 15.43908691 57.75 C15.48157902 64.08726866 15.49312574 70.42451563 15.50531006 76.76190186 C15.51687489 82.15528819 15.54049554 87.54836365 15.58000183 92.94161987 C15.59346856 95.44762673 15.58942441 97.95320038 15.58459473 100.45922852 C15.59393865 102.00407451 15.60410831 103.54891581 15.61523438 105.09375 C15.60908615 105.77855942 15.60293793 106.46336884 15.59660339 107.16893005 C15.66254846 112.41542848 16.89078803 116.2657751 19 121 C22.74750941 124.29444265 25.94019612 124.33514557 30.8125 124.1875 C32.854375 124.125625 34.89625 124.06375 37 124 C37 129.61 37 135.22 37 141 C10.55907414 145.18866152 10.55907414 145.18866152 -0.26171875 138.62890625 C-7.10473489 133.35434483 -9.48182497 126.14863719 -10.75 117.8125 C-10.8325 116.884375 -10.915 115.95625 -11 115 C-11.43570312 115.64066406 -11.87140625 116.28132813 -12.3203125 116.94140625 C-14.1847258 119.64924462 -16.081722 122.33007022 -18 125 C-18.46664063 125.65226563 -18.93328125 126.30453125 -19.4140625 126.9765625 C-27.10029583 136.82033501 -39.81046758 142.4617971 -52 144 C-66.12185444 144.8093208 -80.14609549 144.74931047 -92 136 C-101.04962992 127.57836931 -105.83363832 118.00268306 -106.3359375 105.609375 C-106.57871265 89.86100473 -105.20167881 77.233446 -94.29296875 65.1015625 C-80.83014618 52.12056727 -60.79658687 49.79664435 -42.93359375 49.90234375 C-42.01409439 49.9037587 -41.09459503 49.90517365 -40.14723206 49.90663147 C-37.24395329 49.91217688 -34.34075499 49.92471883 -31.4375 49.9375 C-29.45507925 49.94252207 -27.47265727 49.94708373 -25.49023438 49.95117188 C-20.6601258 49.96212836 -15.83007649 49.97935458 -11 50 C-11.28938838 46.79862165 -11.59091175 43.59849501 -11.89453125 40.3984375 C-12.01640808 39.04770142 -12.01640808 39.04770142 -12.14074707 37.66967773 C-12.93590581 29.40078229 -13.93859952 21.45198132 -20.25 15.5 C-29.11800502 8.96667146 -38.98606399 8.50422211 -49.625 9.6875 C-59.08566306 11.11114525 -59.08566306 11.11114525 -66.48046875 16.72265625 C-69.69000511 21.45695768 -71.27503713 26.5895918 -73 32 C-76.00021487 31.85785272 -79.00011789 31.71138304 -82 31.5625 C-82.83917969 31.52318359 -83.67835937 31.48386719 -84.54296875 31.44335938 C-89.74013458 31.18148668 -94.84457153 30.7100648 -100 30 C-98.63236821 19.34190399 -94.2884586 8.1968982 -86 1 C-62.64283362 -15.7474127 -23.40367356 -17.49907702 0 0 Z M-73 79 C-79.62729623 87.65230341 -79.81939191 96.57609027 -79 107 C-77.45690239 113.69907647 -73.78164443 118.33388451 -68 122 C-60.94444019 125.57072679 -51.42358503 124.95762726 -43.82421875 123.3125 C-37.59015855 121.19627023 -32.17575616 118.04417449 -27 114 C-26.38382813 113.52175781 -25.76765625 113.04351562 -25.1328125 112.55078125 C-17.12623171 105.48719776 -11.77129614 93.57129413 -11 83 C-10.86626599 77.99240444 -10.87979009 73.0087464 -11 68 C-44.1658996 65.76933079 -44.1658996 65.76933079 -73 79 Z " fill="#361E75" transform="translate(1809,134)"/>
<path d="M0 0 C1.0725 0.7425 2.145 1.485 3.25 2.25 C16.76402468 15.76402468 17.28341502 34.55104457 17.30496025 52.49578476 C17.30869039 54.99442204 17.32558741 57.49268526 17.34571838 59.99124146 C17.40054396 67.08328292 17.43188559 74.17537313 17.45629883 81.26757812 C17.47222258 85.63456198 17.50246925 90.00126765 17.54106331 94.36810684 C17.55264652 96.01937017 17.55864307 97.6706832 17.55874443 99.32198715 C17.55893777 101.63015492 17.57729054 103.93755747 17.59936523 106.24560547 C17.60443588 107.55351044 17.60950653 108.86141541 17.61473083 110.20895386 C18.14521852 115.42894929 19.18251205 120.40224289 23.26171875 123.98828125 C26.60747339 125.22444452 29.2537216 125.29534177 32.8125 125.1875 C34.854375 125.125625 36.89625 125.06375 39 125 C39 130.61 39 136.22 39 142 C25.15249201 144.19366463 14.26977682 145.33612799 1.1875 139.8125 C-6.21722471 133.67715667 -7.43129342 125.08064297 -9 116 C-9.53109375 116.73605469 -10.0621875 117.47210938 -10.609375 118.23046875 C-11.31578125 119.20628906 -12.0221875 120.18210938 -12.75 121.1875 C-13.44609375 122.15042969 -14.1421875 123.11335937 -14.859375 124.10546875 C-22.82432261 134.87558952 -33.39865575 142.35119638 -46.8046875 144.68359375 C-61.74551834 146.16306477 -77.4106222 146.2921598 -90 137 C-98.15880882 129.40737187 -103.32504548 120.60646603 -104.20703125 109.36010742 C-104.30388372 106.44570563 -104.32204165 103.5409286 -104.3125 100.625 C-104.32861328 99.64789063 -104.34472656 98.67078125 -104.36132812 97.6640625 C-104.36917074 85.86877114 -100.92325577 75.72498938 -93.06640625 66.8046875 C-79.20118301 53.42283901 -59.39857996 50.79308222 -40.93359375 50.90234375 C-40.01409439 50.9037587 -39.09459503 50.90517365 -38.14723206 50.90663147 C-35.24395329 50.91217688 -32.34075499 50.92471883 -29.4375 50.9375 C-27.45507925 50.94252207 -25.47265727 50.94708373 -23.49023438 50.95117188 C-18.6601258 50.96212836 -13.83007649 50.97935458 -9 51 C-9.28938838 47.79862165 -9.59091175 44.59849501 -9.89453125 41.3984375 C-10.01640808 40.04770142 -10.01640808 40.04770142 -10.14074707 38.66967773 C-10.93590581 30.40078229 -11.93859952 22.45198132 -18.25 16.5 C-24.84795763 11.14324232 -32.30587143 10.51947057 -40.4375 10.625 C-41.32759766 10.61339844 -42.21769531 10.60179687 -43.13476562 10.58984375 C-50.3593899 10.62150755 -56.58048586 11.94829151 -62.8125 15.6875 C-67.49868787 20.64147003 -69.22500468 26.51774838 -71 33 C-74.00021487 32.85785272 -77.00011789 32.71138304 -80 32.5625 C-80.83917969 32.52318359 -81.67835938 32.48386719 -82.54296875 32.44335938 C-87.74013458 32.18148668 -92.84457153 31.7100648 -98 31 C-96.76406678 19.983147 -92.44479894 9.50229906 -84 2 C-61.43315677 -14.21991857 -22.91514058 -16.7254187 0 0 Z M-70.53125 79.28515625 C-77.41407839 87.32122451 -77.62312787 96.96004689 -77.17480469 107.02734375 C-76.65052373 112.94381045 -73.80200652 116.47798636 -69.5625 120.375 C-62.87691699 125.92822208 -55.22612474 125.65360165 -46.97119141 125.1953125 C-35.72236939 124.08074009 -25.93597666 116.96999419 -18.85546875 108.546875 C-11.36735333 98.26845131 -8.88731406 88.17914688 -8.9609375 75.6484375 C-8.96657715 74.39981934 -8.9722168 73.15120117 -8.97802734 71.86474609 C-8.98527832 70.91937988 -8.9925293 69.97401367 -9 69 C-41.67648211 66.84154965 -41.67648211 66.84154965 -70.53125 79.28515625 Z " fill="#361E75" transform="translate(961,133)"/>
<path d="M0 0 C11.0871324 8.11700152 15.24060866 18.0403579 17.49868774 31.29370117 C18.94551006 41.31815738 18.48730849 51.55587536 18.41796875 61.65625 C18.41236167 64.07718643 18.40809684 66.49812631 18.40510559 68.91906738 C18.39374439 75.23844076 18.36435378 81.55760167 18.33099365 87.87689209 C18.30010304 94.34628426 18.28655996 100.81571132 18.27148438 107.28515625 C18.23947449 119.94021172 18.18677935 132.59505481 18.125 145.25 C9.545 145.25 0.965 145.25 -7.875 145.25 C-7.88958252 142.13208008 -7.90416504 139.01416016 -7.91918945 135.80175781 C-7.96966172 125.46802227 -8.03627895 115.13443541 -8.11071491 104.8008461 C-8.15532798 98.53928174 -8.19460407 92.27778109 -8.22143555 86.01611328 C-8.2475589 79.96648819 -8.28802508 73.91710947 -8.33818626 67.86763763 C-8.35479401 65.56656727 -8.36634603 63.26545434 -8.37261391 60.96433258 C-7.74422029 39.25800418 -7.74422029 39.25800418 -16.875 20.25 C-25.16421942 13.76616092 -34.79954714 13.4369655 -44.875 14.25 C-53.59261139 16.08124667 -61.25076018 20.45997626 -66.66015625 27.609375 C-72.87126946 37.43727895 -75.00528812 47.16152244 -75.08032227 58.63012695 C-75.09517166 60.03573631 -75.09517166 60.03573631 -75.11032104 61.46974182 C-75.14184417 64.55922949 -75.16665714 67.64873251 -75.19140625 70.73828125 C-75.21198371 72.88348281 -75.23298039 75.02868038 -75.25437927 77.1738739 C-75.30951813 82.81430837 -75.35896349 88.45477894 -75.40722656 94.09527588 C-75.45750138 99.85326339 -75.51315622 105.61119862 -75.56835938 111.36914062 C-75.67584084 122.66271737 -75.77681072 133.95633864 -75.875 145.25 C-84.455 145.25 -93.035 145.25 -101.875 145.25 C-102.205 95.75 -102.535 46.25 -102.875 -4.75 C-94.625 -4.75 -86.375 -4.75 -77.875 -4.75 C-77.4375 5.125 -77.4375 5.125 -77.30688477 8.23388672 C-77.2497229 9.44455811 -77.2497229 9.44455811 -77.19140625 10.6796875 C-77.15474854 11.50710449 -77.11809082 12.33452148 -77.08032227 13.18701172 C-76.99261673 15.31179429 -76.99261673 15.31179429 -75.875 17.25 C-75.52308594 16.75371094 -75.17117188 16.25742188 -74.80859375 15.74609375 C-58.04460903 -7.32079906 -25.13772977 -15.33401516 0 0 Z " fill="#361E75" transform="translate(1473.875,129.75)"/>
<path d="M0 0 C37.95 0 75.9 0 115 0 C115 7.26 115 14.52 115 22 C100.48 22 85.96 22 71 22 C71 68.86 71 115.72 71 164 C85.52 164 100.04 164 115 164 C115 171.26 115 178.52 115 186 C77.05 186 39.1 186 0 186 C0 178.74 0 171.48 0 164 C14.52 164 29.04 164 44 164 C44 117.14 44 70.28 44 22 C29.48 22 14.96 22 0 22 C0 14.74 0 7.48 0 0 Z " fill="#361F75" transform="translate(528,89)"/>
<path d="M0 0 C38.61 0 77.22 0 117 0 C117 21 117 21 112.5625 27.125 C110.72405029 28.76776039 108.87006647 30.39332317 107 32 C105.5231409 33.71691393 104.08507921 35.46795662 102.6875 37.25 C99.08814849 41.70633997 95.3866306 46.05607046 91.625 50.375 C86.14133777 56.6727366 80.72294029 63.0209803 75.34277344 69.40722656 C73.06578561 72.10814812 70.78254206 74.80377244 68.5 77.5 C67.58330416 78.58330865 66.66663747 79.66664196 65.75 80.75 C49.25 100.25 49.25 100.25 47.87353516 101.87670898 C46.96172209 102.95432098 46.04993798 104.03195749 45.13818359 105.10961914 C42.77250026 107.90569602 40.40623525 110.70127766 38.0390625 113.49609375 C37.55115234 114.07230469 37.06324219 114.64851563 36.56054688 115.2421875 C35.63755936 116.3321918 34.71439677 117.42204789 33.79101562 118.51171875 C30.84301651 121.99367814 27.920929 125.4948852 25 129 C57.01 129.33 89.02 129.66 122 130 C122 136.6 122 143.2 122 150 C79.76 150 37.52 150 -6 150 C-6 127.75206966 -6 127.75206966 -1.8359375 123.46875 C-1.25070312 122.9634375 -0.66546875 122.458125 -0.0625 121.9375 C1.14583403 120.72916597 2.35286107 119.51952355 3.55859375 118.30859375 C4.44780518 117.46530518 4.44780518 117.46530518 5.35498047 116.60498047 C7.61731689 114.39770833 9.54908323 111.98331649 11.5 109.5 C15.07541526 105.08331056 18.76599348 100.78219615 22.5 96.5 C26.99747977 91.34148689 31.38995452 86.11842906 35.69921875 80.80078125 C39.38006413 76.3200238 43.17513193 71.93840814 46.95703125 67.54296875 C49.84230575 64.18857372 52.70679062 60.81708011 55.5625 57.4375 C56.01222168 56.90527832 56.46194336 56.37305664 56.92529297 55.82470703 C57.83068442 54.7528666 58.73595817 53.68092674 59.64111328 52.60888672 C61.46765588 50.44630754 63.29621019 48.28543476 65.125 46.12475586 C66.03541838 45.04896852 66.9455783 43.97296241 67.85546875 42.89672852 C70.25425757 40.05979885 72.65733503 37.226643 75.06640625 34.3984375 C75.56785156 33.80869141 76.06929687 33.21894531 76.5859375 32.61132812 C77.54688659 31.48132318 78.50906304 30.35236044 79.47265625 29.22460938 C81.46585779 26.87844506 83.28942243 24.56586635 85 22 C56.95 21.67 28.9 21.34 0 21 C0 14.07 0 7.14 0 0 Z " fill="#361E75" transform="translate(1542,125)"/>
<path d="M0 0 C27.06 0 54.12 0 82 0 C82.1209091 40.60306792 82.1209091 40.60306792 82.14648438 57.66210938 C82.16426166 69.4250889 82.18512197 81.18800379 82.22631836 92.95092773 C82.2563116 101.51910065 82.27559649 110.08722096 82.28226548 118.65544492 C82.28616099 123.18815554 82.29525366 127.72071572 82.31719017 132.25337791 C82.33771247 136.52889519 82.34380235 140.80420156 82.33932304 145.07976341 C82.34014126 146.64010773 82.34601246 148.20045988 82.35761642 149.76076126 C82.47600032 166.51576278 79.82323405 181.51321271 68.03515625 194.15625 C53.14222847 207.64849935 33.89491181 209.9002623 14.61035156 209.16113281 C10.00364625 208.87676829 5.44521492 208.32256809 0.875 207.6875 C0.02292969 207.56995361 -0.82914063 207.45240723 -1.70703125 207.33129883 C-7.55953849 206.43263577 -12.1602717 204.9465761 -18 203 C-18 196.4 -18 189.8 -18 183 C-12.73629407 183.47137665 -7.62710116 184.07099083 -2.4375 185.0625 C4.23862528 186.10489858 10.87379214 186.29130939 17.625 186.375 C18.67373291 186.40086182 19.72246582 186.42672363 20.80297852 186.45336914 C30.57397362 186.47713912 39.55956834 184.05600454 47.27734375 177.84375 C52.9104522 171.8146634 55.10808586 164.21592788 55.15821838 156.16607666 C55.1680072 154.97418228 55.17779602 153.7822879 55.18788147 152.55427551 C55.19363693 151.25020248 55.1993924 149.94612946 55.20532227 148.60253906 C55.21490443 147.21280122 55.22491472 145.82306627 55.23532104 144.43333435 C55.26233948 140.66304883 55.2833656 136.89275084 55.30332303 133.12242222 C55.32520148 129.18126213 55.35258107 125.24014038 55.37937927 121.29901123 C55.42928102 113.83702111 55.47422919 106.37500969 55.51740164 98.91297793 C55.56679553 90.4172537 55.62170568 81.92156793 55.67708123 73.42588091 C55.79086263 55.9506214 55.89698183 38.4753265 56 21 C37.52 21 19.04 21 0 21 C0 14.07 0 7.14 0 0 Z " fill="#361E75" transform="translate(1042,125)"/>
<path d="M0 0 C23.1 0 46.2 0 70 0 C70 42.9 70 85.8 70 130 C87.16 130 104.32 130 122 130 C122 136.6 122 143.2 122 150 C77.12 150 32.24 150 -14 150 C-14 143.4 -14 136.8 -14 130 C5.14 130 24.28 130 44 130 C44 94.03 44 58.06 44 21 C29.48 21 14.96 21 0 21 C0 14.07 0 7.14 0 0 Z " fill="#361E75" transform="translate(1211,125)"/>
<path d="M0 0 C1.19431641 -0.00773437 2.38863281 -0.01546875 3.61914062 -0.0234375 C11.3663089 -0.00656833 18.57937947 0.78533509 26.1875 2.25 C26.1875 10.17 26.1875 18.09 26.1875 26.25 C15.3125 25.25 15.3125 25.25 11.94970703 24.93359375 C-3.54432123 23.54926646 -17.72622048 23.78126343 -30.8125 33.25 C-31.864375 33.9925 -32.91625 34.735 -34 35.5 C-50.79641595 51.92316226 -51.85490721 73.61394276 -52.10342598 95.6676712 C-52.11183447 96.42187096 -52.12024296 97.17607071 -52.12890625 97.953125 C-52.14953118 99.52781652 -52.17052885 101.1025032 -52.19187927 102.67718506 C-52.24652914 106.78037542 -52.296185 110.88361088 -52.34472656 114.98687744 C-52.39536413 119.19051019 -52.45082741 123.39407914 -52.50585938 127.59765625 C-52.61274041 135.81505119 -52.71388748 144.03250168 -52.8125 152.25 C-61.0625 152.25 -69.3125 152.25 -77.8125 152.25 C-77.82708252 149.27121826 -77.84166504 146.29243652 -77.85668945 143.22338867 C-77.90752204 133.26893783 -77.9741947 123.31463552 -78.04821491 113.36033154 C-78.09252873 107.33797282 -78.13186505 101.31567575 -78.15893555 95.29321289 C-78.04509168 52.40148851 -78.04509168 52.40148851 -84.26171875 10.0703125 C-84.8125 7.25 -84.8125 7.25 -84.8125 2.25 C-76.8925 2.25 -68.9725 2.25 -60.8125 2.25 C-57.39993131 13.19375477 -55.40680155 23.92079658 -53.8125 35.25 C-53.44898438 34.4765625 -53.08546875 33.703125 -52.7109375 32.90625 C-49.61331352 26.48860852 -46.45544233 20.6687251 -41.8125 15.25 C-41.31363281 14.64542969 -40.81476563 14.04085937 -40.30078125 13.41796875 C-29.58936579 1.51351428 -15.06260447 -0.09660676 0 0 Z " fill="#361E75" transform="translate(1972.8125,122.75)"/>
<path d="M0 0 C9.57 0 19.14 0 29 0 C29 8.91 29 17.82 29 27 C19.43 27 9.86 27 0 27 C0 18.09 0 9.18 0 0 Z " fill="#361E75" transform="translate(1252,70)"/>
<path d="M0 0 C9.24 0 18.48 0 28 0 C28 8.91 28 17.82 28 27 C18.76 27 9.52 27 0 27 C0 18.09 0 9.18 0 0 Z " fill="#361E75" transform="translate(1096,70)"/>
</svg>
